<svg width="15" height="15" viewBox="0 0 15 15" fill="none" xmlns="http://www.w3.org/2000/svg">
<path d="M9.20312 0.900391C9.66298 0.900391 10.0371 1.27452 10.0371 1.73438V2.52539H13.7295C13.934 2.52557 14.0994 2.69104 14.0996 2.89551C14.0996 3.10011 13.9338 3.2666 13.7295 3.2666H12.2051V12.9287C12.2051 13.5742 11.6797 14.0994 11.0342 14.0996H3.9668C3.32115 14.0996 2.7959 13.5744 2.7959 12.9287V3.2666H1.27051C1.06593 3.26643 0.900391 3.10013 0.900391 2.89551C0.900567 2.69104 1.06604 2.52557 1.27051 2.52539H4.96289V1.73438C4.96289 1.27452 5.33702 0.900391 5.79688 0.900391H9.20312ZM3.53711 12.9287C3.53711 13.1654 3.73007 13.3584 3.9668 13.3584H11.0332C11.2699 13.3584 11.4629 13.1654 11.4629 12.9287V3.2666H3.53711V12.9287ZM5.79688 1.6416C5.74648 1.6416 5.7041 1.68398 5.7041 1.73438V2.52539H9.2959V1.73438C9.2959 1.6842 9.25419 1.64167 9.20312 1.6416H5.79688Z" fill="currentColor" stroke="currentColor" stroke-width="0.2"/>
<path d="M5.33301 4.69141C5.53763 4.69141 5.70393 4.85694 5.7041 5.06152V11.5615C5.7041 11.7663 5.53774 11.9326 5.33301 11.9326C5.12843 11.9324 4.96289 11.7661 4.96289 11.5615V5.06152C4.96307 4.85705 5.12854 4.69158 5.33301 4.69141Z" fill="currentColor" stroke="currentColor" stroke-width="0.2"/>
<path d="M7.49976 4.69141C7.70438 4.69141 7.87067 4.85694 7.87085 5.06152V11.5615C7.87085 11.7663 7.70448 11.9326 7.49976 11.9326C7.29518 11.9324 7.12964 11.7661 7.12964 11.5615V5.06152C7.12981 4.85705 7.29529 4.69158 7.49976 4.69141Z" fill="currentColor" stroke="currentColor" stroke-width="0.2"/>
<path d="M9.66626 4.69141C9.87088 4.69141 10.0372 4.85694 10.0374 5.06152V11.5615C10.0374 11.7663 9.87099 11.9326 9.66626 11.9326C9.46168 11.9324 9.29614 11.7661 9.29614 11.5615V5.06152C9.29632 4.85705 9.46179 4.69158 9.66626 4.69141Z" fill="currentColor" stroke="currentColor" stroke-width="0.2"/>
</svg>
