<svg width="15" height="15" viewBox="0 0 15 15" fill="none" xmlns="http://www.w3.org/2000/svg">
<path d="M5.31177 7.87305L5.31274 7.87109C5.32728 7.82966 5.3488 7.78721 5.38501 7.75098L5.38599 7.75L11.9778 1.15723L12.0891 1.06641C12.3639 0.885075 12.738 0.915475 12.9797 1.15723L13.842 2.02051L13.9329 2.13086C14.0884 2.36638 14.0883 2.67457 13.9329 2.91016L13.842 3.02148L7.24927 9.61426C7.21367 9.64986 7.17184 9.67101 7.1311 9.68555L7.10669 9.69629L7.10767 9.69727L5.1604 10.2344C5.13234 10.242 5.1028 10.2451 5.07446 10.2451C5.01158 10.245 4.94948 10.2274 4.89673 10.1924L4.8479 10.1523C4.76637 10.0708 4.73505 9.95093 4.76587 9.83984L5.302 7.89258C5.30395 7.88541 5.30728 7.87991 5.30981 7.87598L5.31177 7.87305ZM5.31177 7.87305L5.30981 7.87988L5.31372 7.87109L5.31177 7.87305ZM5.53345 9.46484L6.40552 9.22559L5.77466 8.59473L5.53345 9.46484ZM6.77075 8.68262L7.02173 8.93359L12.7297 3.22559L12.4788 2.97461L6.77075 8.68262ZM6.0647 7.97754L6.31665 8.22949L12.0247 2.52051L11.7737 2.26953L6.0647 7.97754ZM12.4543 1.59668L12.4329 1.61133L12.2278 1.81641L13.1838 2.77246L13.3889 2.56836L13.4036 2.54688C13.4134 2.52269 13.4083 2.49326 13.3889 2.47363V2.47461L12.5266 1.61133C12.5071 1.59184 12.4783 1.58692 12.4543 1.59668Z" fill="currentColor" stroke="currentColor" stroke-width="0.1"/>
<path d="M8.35938 2.52539L8.43359 2.53223C8.60256 2.5667 8.72934 2.71642 8.72949 2.89551C8.72949 3.10014 8.56397 3.26644 8.35938 3.2666H1.98438C1.79561 3.2668 1.6418 3.42061 1.6416 3.60938V13.0156C1.6418 13.2044 1.79561 13.3582 1.98438 13.3584H11.3906C11.5794 13.3582 11.7332 13.2044 11.7334 13.0156V6.64062C11.7336 6.43603 11.8999 6.27051 12.1045 6.27051C12.309 6.27068 12.4745 6.43614 12.4746 6.64062V13.0156C12.4744 13.6138 11.9888 14.0994 11.3906 14.0996H1.98438C1.38615 14.0994 0.900594 13.6138 0.900391 13.0156V3.60938C0.900594 3.01115 1.38615 2.52559 1.98438 2.52539H8.35938Z" fill="currentColor" stroke="currentColor" stroke-width="0.2"/>
</svg>
