<svg width="15" height="21" viewBox="0 0 15 21" fill="currentColor" xmlns="http://www.w3.org/2000/svg">
<path d="M3.4789 20.1152C2.6818 20.1152 2.0765 19.9204 1.6629 19.5308 1.2568 19.1411 1.0538 18.5532 1.0538 17.7671V10.979C1.0538 10.2065 1.2568 9.6255 1.6629 9.2358 2.0765 8.8462 2.6818 8.6514 3.4789 8.6514H13.3708C14.1754 8.6514 14.7807 8.8462 15.1868 9.2358 15.6003 9.6255 15.8071 10.2065 15.8071 10.979V17.7671C15.8071 18.5532 15.6003 19.1411 15.1868 19.5308 14.7807 19.9204 14.1754 20.1152 13.3708 20.1152H3.4789ZM3.6819 18.5054H13.1903C13.4234 18.5054 13.6002 18.4438 13.7204 18.3208 13.8407 18.1978 13.9009 18.0166 13.9009 17.7773V10.9688C13.9009 10.7363 13.8407 10.562 13.7204 10.4458 13.6002 10.3228 13.4234 10.2612 13.1903 10.2612H3.6819C3.4563 10.2612 3.2796 10.3228 3.1518 10.4458 3.0314 10.562 2.9713 10.7363 2.9713 10.9688V17.7773C2.9713 18.0166 3.0314 18.1978 3.1518 18.3208 3.2796 18.4438 3.4563 18.5054 3.6819 18.5054ZM2.9713 9.4307V6.3545C2.9713 5.1514 3.2269 4.1499 3.7383 3.3501 4.2496 2.5435 4.9226 1.9385 5.7573 1.5352 6.5919 1.1318 7.483.9302 8.4305.9302 9.3855.9302 10.2765 1.1318 11.1036 1.5352 11.9383 1.9385 12.6113 2.5435 13.1227 3.3501 13.6415 4.1499 13.9009 5.1514 13.9009 6.3545V9.4307H12.0512V6.1699C12.0512 5.3838 11.882 4.7207 11.5435 4.1807 11.2127 3.6406 10.7728 3.2339 10.2239 2.9604 9.6825 2.687 9.0847 2.5503 8.4305 2.5503 7.7838 2.5503 7.186 2.687 6.6371 2.9604 6.0881 3.2339 5.6482 3.6406 5.3174 4.1807 4.9865 4.7207 4.8211 5.3838 4.8211 6.1699V9.4307H2.9713Z" fill="currentColor"/>

</svg>
