<svg width="23" height="19" viewBox="0 0 23 19" fill="currentColor" xmlns="http://www.w3.org/2000/svg">
<path d="M21.5625 18.125C21.5625 18.125 23 18.125 23 16.6875C23 15.25 21.5625 10.9375 15.8125 10.9375C10.0625 10.9375 8.625 15.25 8.625 16.6875C8.625 18.125 10.0625 18.125 10.0625 18.125H21.5625ZM10.0946 16.6875C10.0896 16.6869 10.0827 16.686 10.0742 16.6846C10.0702 16.6839 10.0663 16.6832 10.0625 16.6825C10.0646 16.3029 10.3024 15.2024 11.1539 14.209C11.9504 13.2797 13.3439 12.375 15.8125 12.375C18.2811 12.375 19.6746 13.2797 20.4711 14.209C21.3226 15.2024 21.5604 16.3029 21.5625 16.6825C21.5587 16.6832 21.5548 16.6839 21.5508 16.6846C21.5423 16.686 21.5354 16.6869 21.5304 16.6875H10.0946Z" fill="currentColor"/>
<path d="M15.8125 8.0625C17.4003 8.0625 18.6875 6.77532 18.6875 5.1875C18.6875 3.59968 17.4003 2.3125 15.8125 2.3125C14.2247 2.3125 12.9375 3.59968 12.9375 5.1875C12.9375 6.77532 14.2247 8.0625 15.8125 8.0625ZM20.125 5.1875C20.125 7.56923 18.1942 9.5 15.8125 9.5C13.4308 9.5 11.5 7.56923 11.5 5.1875C11.5 2.80577 13.4308 0.875 15.8125 0.875C18.1942 0.875 20.125 2.80577 20.125 5.1875Z" fill="currentColor"/>
<path d="M9.9704 11.3399C9.44169 11.1708 8.85433 11.0479 8.20278 10.985C7.8803 10.9539 7.5421 10.9375 7.1875 10.9375C1.4375 10.9375 0 15.25 0 16.6875C0 17.6458 0.479167 18.125 1.4375 18.125H7.49852C7.29612 17.7166 7.1875 17.2325 7.1875 16.6875C7.1875 15.2352 7.72979 13.7522 8.75411 12.5133C9.10408 12.09 9.51031 11.6952 9.9704 11.3399ZM7.07256 12.3757C6.21367 13.6883 5.75 15.1849 5.75 16.6875H1.4375C1.4375 16.3127 1.6736 15.2068 2.52893 14.209C3.31298 13.2942 4.67546 12.4033 7.07256 12.3757Z" fill="currentColor"/>
<path d="M2.15625 5.90625C2.15625 3.52452 4.08702 1.59375 6.46875 1.59375C8.85048 1.59375 10.7812 3.52452 10.7812 5.90625C10.7812 8.28798 8.85048 10.2188 6.46875 10.2188C4.08702 10.2188 2.15625 8.28798 2.15625 5.90625ZM6.46875 3.03125C4.88093 3.03125 3.59375 4.31843 3.59375 5.90625C3.59375 7.49407 4.88093 8.78125 6.46875 8.78125C8.05657 8.78125 9.34375 7.49407 9.34375 5.90625C9.34375 4.31843 8.05657 3.03125 6.46875 3.03125Z" fill="currentColor"/>
</svg>
