<svg width="15" height="15" viewBox="0 0 15 15" fill="none" xmlns="http://www.w3.org/2000/svg">
<path d="M7.5 0.900391C11.1394 0.900391 14.0996 3.86056 14.0996 7.5C14.0996 11.1394 11.1394 14.0996 7.5 14.0996C3.86056 14.0996 0.900391 11.1394 0.900391 7.5C0.900391 3.86056 3.86056 0.900391 7.5 0.900391ZM7.5 1.6416C4.27002 1.6416 1.6416 4.27002 1.6416 7.5C1.6416 10.73 4.27002 13.3584 7.5 13.3584C10.73 13.3584 13.3584 10.73 13.3584 7.5C13.3584 4.27002 10.73 1.6416 7.5 1.6416Z" fill="currentColor" stroke="currentColor" stroke-width="0.2"/>
<path d="M7.49976 4.42188C9.29754 4.42188 10.978 5.40199 11.9705 6.99805L12.1599 7.3252L12.1931 7.41113C12.2076 7.46978 12.2076 7.53121 12.1931 7.58984L12.1599 7.67578C11.2019 9.46454 9.41734 10.5801 7.49976 10.5801C5.70215 10.58 4.02144 9.59974 3.02905 8.00391L2.84058 7.67578C2.78214 7.56625 2.78217 7.43571 2.84058 7.32617V7.3252L3.02905 6.99805C4.02143 5.40168 5.7021 4.42196 7.49976 4.42188ZM7.49976 5.16309C5.92449 5.16318 4.44453 6.05124 3.59351 7.5C4.44444 8.94933 5.92414 9.8378 7.49976 9.83789C9.07538 9.83789 10.555 8.94928 11.406 7.5C10.5549 6.0513 9.07503 5.16309 7.49976 5.16309Z" fill="currentColor" stroke="currentColor" stroke-width="0.2"/>
<path d="M7.50024 6.04688C8.30336 6.04705 8.95435 6.69782 8.95435 7.50098C8.95417 8.30399 8.30326 8.9549 7.50024 8.95508C6.69708 8.95508 6.04632 8.3041 6.04614 7.50098C6.04614 7.32126 6.08282 7.15243 6.14087 6.99609L6.21216 6.80469L6.31958 6.97852L6.39478 7.07227C6.48088 7.15582 6.59786 7.20703 6.72681 7.20703C6.99159 7.20682 7.2063 6.99181 7.2063 6.72656C7.20628 6.55527 7.11494 6.40461 6.97778 6.31934L6.80396 6.21191L6.99634 6.14062C7.15196 6.08322 7.32063 6.04688 7.50024 6.04688Z" fill="currentColor" stroke="currentColor" stroke-width="0.2"/>
</svg>
